<svg width="36" height="36" viewBox="0 0 36 36" fill="none" xmlns="http://www.w3.org/2000/svg">
<path d="M31.0455 21.0375C29.0655 19.059 25.614 19.0545 23.628 21.03L23.0115 21.636C19.1325 19.8375 16.2915 16.9845 14.3805 12.9705L14.9625 12.378C15.954 11.3865 16.5 10.068 16.5 8.6655C16.5 7.263 15.954 5.9445 15.021 5.0115L11.793 1.536C9.8295 -0.4275 6.4185 -0.453 4.431 1.4745C4.431 1.4745 2.8305 2.8695 2.793 2.9055C0.993 4.707 0 7.137 0 9.75C0 21.0345 14.9655 36 26.25 36C28.8645 36 31.2945 35.007 33.093 33.2055C33.129 33.1695 34.524 31.569 34.524 31.569C36.5085 29.5185 36.4875 26.2335 34.401 24.15L31.0455 21.039V21.0375ZM31.2795 28.449C31.2435 28.485 29.8575 30.0735 29.8575 30.0735C28.914 30.993 27.636 31.4985 26.25 31.4985C17.985 31.4985 4.5 19.347 4.5 9.7485C4.5 8.3625 5.0055 7.0845 5.925 6.141C5.925 6.141 7.515 4.755 7.551 4.719C7.7415 4.527 7.965 4.5 8.0805 4.5C8.196 4.5 8.4195 4.5285 8.5515 4.659L11.7795 8.1345C11.97 8.3265 11.9985 8.5485 11.9985 8.6655C11.9985 8.781 11.97 9.0045 11.766 9.2085L10.104 10.8975C9.477 11.535 9.2865 12.4845 9.6195 13.3125C12.1605 19.644 16.5675 24.042 22.7175 26.391C23.5425 26.706 24.471 26.5095 25.098 25.893C25.098 25.893 26.7975 24.222 26.802 24.2175C26.9925 24.0255 27.216 23.9985 27.3315 23.9985C27.447 23.9985 27.6705 24.027 27.9225 24.2775L31.278 27.3885C31.5705 27.681 31.5705 28.1565 31.278 28.449H31.2795ZM21.441 6.7395C21.0405 6.4005 20.895 5.8485 21.0765 5.3565C21.2565 4.8645 21.7245 4.5375 22.2495 4.5375H26.001L27.3285 0.813C27.51 0.324 27.978 0 28.5 0C29.022 0 29.49 0.324 29.6715 0.813L30.999 4.5375H34.7505C35.2755 4.5375 35.745 4.866 35.925 5.3595C36.105 5.853 35.958 6.4065 35.556 6.744L32.5995 9.153L33.822 12.879C33.99 13.383 33.819 13.938 33.399 14.262C32.9775 14.586 32.3985 14.6085 31.953 14.319L28.5105 12.0765L25.125 14.3415C24.915 14.4825 24.672 14.553 24.429 14.553C24.165 14.553 23.901 14.469 23.679 14.304C23.2545 13.986 23.0775 13.434 23.2365 12.9285L24.4125 9.159L21.441 6.7395Z" fill="#4A00E0"/>
</svg>
