<svg width="18" height="18" viewBox="0 0 18 18" fill="none" xmlns="http://www.w3.org/2000/svg">
<path d="M12 15V3C12 2.60218 11.842 2.22064 11.5607 1.93934C11.2794 1.65804 10.8978 1.5 10.5 1.5H7.5C7.10218 1.5 6.72064 1.65804 6.43934 1.93934C6.15804 2.22064 6 2.60218 6 3V15" stroke="#6D28D9" stroke-width="1.5" stroke-linecap="round" stroke-linejoin="round"/>
<path d="M15 4.5H3C2.17157 4.5 1.5 5.17157 1.5 6V13.5C1.5 14.3284 2.17157 15 3 15H15C15.8284 15 16.5 14.3284 16.5 13.5V6C16.5 5.17157 15.8284 4.5 15 4.5Z" stroke="#6D28D9" stroke-width="1.5" stroke-linecap="round" stroke-linejoin="round"/>
</svg>
