<svg width="18" height="18" viewBox="0 0 18 18" fill="none" xmlns="http://www.w3.org/2000/svg">
<path d="M9 12H9.0075" stroke="#6D28D9" stroke-width="1.5" stroke-linecap="round" stroke-linejoin="round"/>
<path d="M12 12H12.0075" stroke="#6D28D9" stroke-width="1.5" stroke-linecap="round" stroke-linejoin="round"/>
<path d="M2.25 14.25C2.25 14.6478 2.40804 15.0294 2.68934 15.3107C2.97064 15.592 3.35218 15.75 3.75 15.75H14.25C14.6478 15.75 15.0294 15.592 15.3107 15.3107C15.592 15.0294 15.75 14.6478 15.75 14.25V6.375C15.7501 6.30773 15.732 6.24167 15.6978 6.18376C15.6636 6.12585 15.6144 6.07822 15.5554 6.04585C15.4964 6.01349 15.4298 5.99758 15.3626 5.99981C15.2954 6.00203 15.23 6.02231 15.1733 6.0585L11.8268 8.1915C11.77 8.22769 11.7046 8.24796 11.6374 8.25019C11.5702 8.25242 11.5036 8.23651 11.4446 8.20415C11.3856 8.17178 11.3364 8.12415 11.3022 8.06624C11.268 8.00833 11.2499 7.94227 11.25 7.875V6.375C11.2501 6.30773 11.232 6.24167 11.1978 6.18376C11.1636 6.12585 11.1144 6.07822 11.0554 6.04585C10.9964 6.01349 10.9298 5.99758 10.8626 5.99981C10.7954 6.00203 10.73 6.02231 10.6732 6.0585L7.3275 8.1915C7.27078 8.22789 7.2053 8.24832 7.13795 8.25065C7.0706 8.25298 7.00387 8.23712 6.94477 8.20473C6.88567 8.17234 6.8364 8.12462 6.80212 8.0666C6.76785 8.00858 6.74984 7.94239 6.75 7.875V3.75C6.75 3.35218 6.59196 2.97064 6.31066 2.68934C6.02936 2.40804 5.64782 2.25 5.25 2.25H3.75C3.35218 2.25 2.97064 2.40804 2.68934 2.68934C2.40804 2.97064 2.25 3.35218 2.25 3.75V14.25Z" stroke="#6D28D9" stroke-width="1.5" stroke-linecap="round" stroke-linejoin="round"/>
<path d="M6 12H6.0075" stroke="#6D28D9" stroke-width="1.5" stroke-linecap="round" stroke-linejoin="round"/>
</svg>
