<svg width="36" height="36" viewBox="0 0 36 36" fill="none" xmlns="http://www.w3.org/2000/svg">
<g clip-path="url(#clip0_4950_1137)">
<path d="M14.25 36H2.25C1.65326 36 1.08097 35.7629 0.65901 35.341C0.237053 34.919 0 34.3467 0 33.75C0 33.1533 0.237053 32.581 0.65901 32.159C1.08097 31.7371 1.65326 31.5 2.25 31.5H14.25C14.8467 31.5 15.419 31.7371 15.841 32.159C16.2629 32.581 16.5 33.1533 16.5 33.75C16.5 34.3467 16.2629 34.919 15.841 35.341C15.419 35.7629 14.8467 36 14.25 36Z" fill="#4A00E0"/>
<path d="M11.25 28.5H2.25C1.65326 28.5 1.08097 28.2629 0.65901 27.841C0.237053 27.419 0 26.8467 0 26.25C0 25.6533 0.237053 25.081 0.65901 24.659C1.08097 24.2371 1.65326 24 2.25 24H11.25C11.8467 24 12.419 24.2371 12.841 24.659C13.2629 25.081 13.5 25.6533 13.5 26.25C13.5 26.8467 13.2629 27.419 12.841 27.841C12.419 28.2629 11.8467 28.5 11.25 28.5Z" fill="#4A00E0"/>
<path d="M8.25 21H2.25C1.65326 21 1.08097 20.7629 0.65901 20.341C0.237053 19.919 0 19.3467 0 18.75C0 18.1533 0.237053 17.581 0.65901 17.159C1.08097 16.7371 1.65326 16.5 2.25 16.5H8.25C8.84674 16.5 9.41903 16.7371 9.84099 17.159C10.2629 17.581 10.5 18.1533 10.5 18.75C10.5 19.3467 10.2629 19.919 9.84099 20.341C9.41903 20.7629 8.84674 21 8.25 21Z" fill="#4A00E0"/>
<path d="M21.7472 35.5825C21.1964 35.5831 20.6645 35.3815 20.2523 35.0161C19.8401 34.6507 19.5763 34.1468 19.5109 33.5999C19.4454 33.0529 19.5829 32.501 19.8972 32.0486C20.2115 31.5963 20.6808 31.2749 21.2162 31.1455C23.435 30.6016 25.48 29.5048 27.1605 27.9574C28.8411 26.41 30.1027 24.4624 30.8276 22.296C31.5525 20.1296 31.7171 17.8149 31.3063 15.5677C30.8954 13.3205 29.9223 11.2138 28.4777 9.44411C27.0331 7.67438 25.164 6.29914 23.0446 5.44654C20.9252 4.59395 18.6245 4.29176 16.3568 4.56812C14.0891 4.84448 11.9283 5.69041 10.0757 7.02707C8.22307 8.36373 6.73899 10.1476 5.76173 12.2125C5.5011 12.7431 5.04209 13.1499 4.48395 13.3448C3.92581 13.5397 3.31338 13.5071 2.77909 13.254C2.2448 13.001 1.83157 12.5478 1.62874 11.9925C1.42592 11.4372 1.44981 10.8243 1.69523 10.2865C2.99747 7.53407 4.97542 5.15616 7.4447 3.37447C9.91397 1.59277 12.7942 0.465294 15.8168 0.0971465C18.8394 -0.271001 21.906 0.132166 24.7308 1.26906C27.5555 2.40596 30.0464 4.23957 31.9713 6.59896C33.8961 8.95835 35.1923 11.7667 35.7388 14.7622C36.2854 17.7577 36.0646 20.8428 35.097 23.73C34.1295 26.6171 32.4467 29.2123 30.2054 31.2735C27.9642 33.3347 25.2376 34.7949 22.2797 35.518C22.1054 35.5605 21.9267 35.5821 21.7472 35.5825Z" fill="#4A00E0"/>
<path d="M18.75 9C18.1533 9 17.581 9.23705 17.159 9.65901C16.7371 10.081 16.5 10.6533 16.5 11.25V17.6895C16.5002 18.4851 16.8164 19.248 17.379 19.8105L20.0685 22.5C20.4929 22.9099 21.0612 23.1366 21.6512 23.1315C22.2411 23.1264 22.8054 22.8898 23.2226 22.4726C23.6398 22.0554 23.8764 21.4911 23.8815 20.9012C23.8866 20.3112 23.6599 19.7429 23.25 19.3185L21 17.0685V11.25C21 10.6533 20.7629 10.081 20.341 9.65901C19.919 9.23705 19.3467 9 18.75 9Z" fill="#4A00E0"/>
</g>
<defs>
<clipPath id="clip0_4950_1137">
<rect width="36" height="36" fill="white"/>
</clipPath>
</defs>
</svg>
