<svg width="36" height="36" viewBox="0 0 36 36" fill="none" xmlns="http://www.w3.org/2000/svg">
<path d="M22.5 2.25C22.5 1.008 23.508 0 24.75 0C25.992 0 27 1.008 27 2.25C27 3.492 25.992 4.5 24.75 4.5C23.508 4.5 22.5 3.492 22.5 2.25ZM24.15 13.05C24.555 13.353 25.0275 13.5 25.4985 13.5C26.1825 13.5 26.8575 13.1895 27.3 12.6L34.05 3.6C34.7955 2.6055 34.593 1.1955 33.6 0.45C32.607 -0.294 31.197 -0.0944999 30.45 0.9L23.7 9.9C22.9545 10.8945 23.157 12.3045 24.15 13.05ZM33.75 9C32.508 9 31.5 10.008 31.5 11.25C31.5 12.492 32.508 13.5 33.75 13.5C34.992 13.5 36 12.492 36 11.25C36 10.008 34.992 9 33.75 9ZM34.5 22.5V30.375C34.5 33.6345 30.4005 36 24.75 36C21.6345 36 18.996 35.2785 17.25 34.086C15.504 35.2785 12.8655 36 9.75 36C4.0995 36 0 33.6345 0 30.375V7.5C0 4.023 4.0995 1.5 9.75 1.5C15.4005 1.5 19.5 4.023 19.5 7.5V17.367C20.9895 16.815 22.7715 16.5 24.75 16.5C30.4005 16.5 34.5 19.023 34.5 22.5ZM4.5435 7.5C4.9275 8.001 6.744 9 9.75 9C12.756 9 14.5725 8.001 14.9565 7.5C14.5725 6.999 12.756 6 9.75 6C6.744 6 4.9275 6.999 4.5435 7.5ZM15 27.633C13.5105 28.185 11.7285 28.5 9.75 28.5C7.7715 28.5 5.9895 28.185 4.5 27.633V30.174C4.899 30.585 6.639 31.5 9.75 31.5C12.861 31.5 14.601 30.5865 15 30.174V27.633ZM15 20.133C13.5105 20.685 11.7285 21 9.75 21C7.7715 21 5.9895 20.685 4.5 20.133V22.5C4.6815 22.857 6.5355 24 9.75 24C12.924 24 14.7645 22.8885 15 22.4235V20.133ZM15 12.633C13.5105 13.185 11.7285 13.5 9.75 13.5C7.7715 13.5 5.9895 13.185 4.5 12.633V15C4.6815 15.357 6.5355 16.5 9.75 16.5C12.924 16.5 14.7645 15.3885 15 14.9235V12.633ZM19.5435 22.5C19.9275 23.001 21.744 24 24.75 24C27.756 24 29.5725 23.001 29.9565 22.5C29.5725 21.999 27.756 21 24.75 21C21.744 21 19.9275 21.999 19.5435 22.5ZM30 27.633C28.5105 28.185 26.7285 28.5 24.75 28.5C22.7715 28.5 20.9895 28.185 19.5 27.633V30.174C19.899 30.585 21.639 31.5 24.75 31.5C27.861 31.5 29.601 30.5865 30 30.174V27.633Z" fill="#4A00E0"/>
</svg>
