<svg width="16" height="16" viewBox="0 0 16 16" fill="none" xmlns="http://www.w3.org/2000/svg">
<path d="M2.66894 9.33279C2.54278 9.33322 2.41909 9.29785 2.31224 9.23078C2.20539 9.16371 2.11976 9.06769 2.06531 8.9539C2.01085 8.8401 1.9898 8.71318 2.00461 8.5879C2.01941 8.46261 2.06946 8.3441 2.14894 8.24612L8.74894 1.44612C8.79845 1.38898 8.86591 1.35036 8.94026 1.33661C9.01461 1.32286 9.09142 1.3348 9.15809 1.37046C9.22476 1.40612 9.27733 1.46339 9.30716 1.53286C9.337 1.60234 9.34233 1.67989 9.32227 1.75279L8.04227 5.76612C8.00453 5.86714 7.99185 5.9758 8.00533 6.0828C8.01881 6.18979 8.05805 6.29191 8.11967 6.38041C8.18129 6.46891 8.26346 6.54113 8.35912 6.5909C8.45479 6.64066 8.5611 6.66648 8.66894 6.66612H13.3356C13.4618 6.66569 13.5855 6.70107 13.6923 6.76814C13.7992 6.83521 13.8848 6.93122 13.9392 7.04502C13.9937 7.15882 14.0147 7.28573 13.9999 7.41102C13.9851 7.5363 13.9351 7.65482 13.8556 7.75279L7.25561 14.5528C7.2061 14.6099 7.13863 14.6486 7.06429 14.6623C6.98994 14.6761 6.91312 14.6641 6.84645 14.6285C6.77978 14.5928 6.72722 14.5355 6.69738 14.4661C6.66755 14.3966 6.66222 14.319 6.68227 14.2461L7.96227 10.2328C8.00002 10.1318 8.01269 10.0231 7.99921 9.91612C7.98573 9.80913 7.9465 9.707 7.88488 9.61851C7.82326 9.53001 7.74109 9.45778 7.64542 9.40802C7.54976 9.35825 7.44344 9.33244 7.33561 9.33279H2.66894Z" stroke="#4A00E0" stroke-linecap="round" stroke-linejoin="round"/>
</svg>
