<svg width="36" height="36" viewBox="0 0 36 36" fill="none" xmlns="http://www.w3.org/2000/svg">
<path d="M22.5009 23.4368C22.5009 21.746 21.8292 20.1245 20.6337 18.929C19.4381 17.7334 17.8166 17.0618 16.1259 17.0618C14.4351 17.0618 12.8136 17.7334 11.6181 18.929C10.4225 20.1245 9.75088 21.746 9.75088 23.4368C9.75088 24.0335 9.98793 24.6058 10.4099 25.0278C10.8318 25.4497 11.4041 25.6868 12.0009 25.6868C12.5976 25.6868 13.1699 25.4497 13.5919 25.0278C14.0138 24.6058 14.2509 24.0335 14.2509 23.4368C14.2509 22.9395 14.4484 22.4626 14.8001 22.111C15.1517 21.7593 15.6286 21.5618 16.1259 21.5618C16.6232 21.5618 17.1001 21.7593 17.4517 22.111C17.8033 22.4626 18.0009 22.9395 18.0009 23.4368C18.0009 24.3743 16.2129 25.7153 14.7759 26.7923C12.4209 28.5593 9.75088 30.5618 9.75088 33.7493C9.75088 34.346 9.98793 34.9183 10.4099 35.3403C10.8318 35.7622 11.4041 35.9993 12.0009 35.9993H20.2509C20.8476 35.9993 21.4199 35.7622 21.8419 35.3403C22.2638 34.9183 22.5009 34.346 22.5009 33.7493C22.5009 33.1525 22.2638 32.5802 21.8419 32.1583C21.4199 31.7363 20.8476 31.4993 20.2509 31.4993H16.0509C16.5159 31.1183 17.0184 30.7493 17.4834 30.3938C19.8309 28.6268 22.5009 26.6243 22.5009 23.4368Z" fill="#4A00E0"/>
<path d="M33.7509 16.4993C33.1541 16.4993 32.5818 16.7363 32.1599 17.1583C31.7379 17.5802 31.5009 18.1525 31.5009 18.7493V25.4993H30.3759C29.8788 25.4985 29.4024 25.3007 29.0509 24.9492C28.6995 24.5978 28.5017 24.1213 28.5009 23.6243V18.7493C28.5009 18.1525 28.2638 17.5802 27.8419 17.1583C27.4199 16.7363 26.8476 16.4993 26.2509 16.4993C25.6541 16.4993 25.0818 16.7363 24.6599 17.1583C24.2379 17.5802 24.0009 18.1525 24.0009 18.7493V23.6243C24.0029 25.3144 24.6752 26.9348 25.8703 28.1299C27.0654 29.325 28.6857 29.9973 30.3759 29.9993H31.5009V33.7493C31.5009 34.346 31.7379 34.9183 32.1599 35.3403C32.5818 35.7622 33.1541 35.9993 33.7509 35.9993C34.3476 35.9993 34.9199 35.7622 35.3419 35.3403C35.7638 34.9183 36.0009 34.346 36.0009 33.7493V18.7493C36.0009 18.1525 35.7638 17.5802 35.3419 17.1583C34.9199 16.7363 34.3476 16.4993 33.7509 16.4993Z" fill="#4A00E0"/>
<path d="M33.4404 4.05978L31.4559 6.04428C28.5133 2.73247 24.4527 0.622172 20.0513 0.117306C15.6499 -0.387561 11.217 0.748469 7.60088 3.30796C3.9848 5.86744 1.43963 9.67059 0.452524 13.9895C-0.534579 18.3083 0.105725 22.8395 2.25088 26.7158C2.39418 26.9742 2.58699 27.2019 2.81829 27.3858C3.04959 27.5698 3.31485 27.7063 3.59892 27.7877C3.883 27.8692 4.18033 27.8938 4.47394 27.8603C4.76755 27.8268 5.05169 27.7358 5.31013 27.5925C5.56857 27.4492 5.79626 27.2564 5.98018 27.0251C6.16411 26.7938 6.30068 26.5286 6.3821 26.2445C6.46351 25.9604 6.48817 25.6631 6.45468 25.3695C6.42118 25.0759 6.33018 24.7917 6.18688 24.5333C4.56533 21.6078 4.0886 18.1842 4.84926 14.927C5.60991 11.6698 7.55367 8.81147 10.3032 6.90679C13.0528 5.00211 16.4119 4.187 19.7286 4.61968C23.0454 5.05236 26.083 6.70197 28.2519 9.24828L26.5614 10.9388C26.3517 11.1486 26.2089 11.4158 26.151 11.7067C26.0932 11.9977 26.1229 12.2992 26.2364 12.5733C26.3499 12.8473 26.5421 13.0816 26.7887 13.2464C27.0353 13.4112 27.3253 13.4992 27.6219 13.4993H34.5009C34.8987 13.4993 35.2802 13.3412 35.5615 13.0599C35.8428 12.7786 36.0009 12.3971 36.0009 11.9993V5.12028C36.0008 4.82365 35.9128 4.53371 35.748 4.28709C35.5832 4.04048 35.3489 3.84827 35.0749 3.73476C34.8008 3.62126 34.4993 3.59155 34.2083 3.64941C33.9174 3.70726 33.6502 3.85007 33.4404 4.05978Z" fill="#4A00E0"/>
</svg>
