<svg width="32" height="32" viewBox="0 0 32 32" fill="none" xmlns="http://www.w3.org/2000/svg">
<path d="M5.32968 18.6609C5.07744 18.6618 4.83013 18.5911 4.61649 18.457C4.40285 18.3229 4.23164 18.1309 4.12276 17.9034C4.01388 17.6758 3.9718 17.4221 4.0014 17.1716C4.031 16.9211 4.13107 16.6841 4.28998 16.4882L17.4861 2.89218C17.5851 2.77792 17.72 2.70071 17.8687 2.67322C18.0173 2.64573 18.1709 2.6696 18.3042 2.7409C18.4375 2.8122 18.5426 2.9267 18.6023 3.06561C18.6619 3.20452 18.6726 3.35958 18.6325 3.50534L16.0732 11.5297C15.9978 11.7316 15.9724 11.9489 15.9994 12.1628C16.0263 12.3767 16.1048 12.5809 16.228 12.7579C16.3512 12.9348 16.5155 13.0792 16.7067 13.1787C16.898 13.2782 17.1106 13.3298 17.3262 13.3291H26.6568C26.9091 13.3283 27.1564 13.399 27.37 13.5331C27.5836 13.6672 27.7548 13.8592 27.8637 14.0867C27.9726 14.3143 28.0147 14.568 27.9851 14.8185C27.9555 15.069 27.8554 15.306 27.6965 15.5018L14.5003 29.0979C14.4014 29.2122 14.2665 29.2894 14.1178 29.3169C13.9692 29.3443 13.8156 29.3205 13.6823 29.2492C13.549 29.1779 13.4439 29.0634 13.3842 28.9245C13.3246 28.7856 13.3139 28.6305 13.354 28.4847L15.9133 20.4604C15.9887 20.2584 16.0141 20.0412 15.9871 19.8272C15.9602 19.6133 15.8817 19.4091 15.7585 19.2322C15.6353 19.0553 15.471 18.9108 15.2798 18.8113C15.0885 18.7118 14.8759 18.6602 14.6603 18.6609H5.32968Z" stroke="#A78BFA" stroke-width="2.66583" stroke-linecap="round" stroke-linejoin="round"/>
</svg>
