<svg width="32" height="32" viewBox="0 0 32 32" fill="none" xmlns="http://www.w3.org/2000/svg">
<path d="M21.3253 27.9918V25.3259C21.3253 23.9118 20.7636 22.5557 19.7637 21.5558C18.7638 20.5559 17.4076 19.9941 15.9935 19.9941H7.99585C6.58177 19.9941 5.22561 20.5559 4.22571 21.5558C3.2258 22.5557 2.66406 23.9118 2.66406 25.3259V27.9918" stroke="#A78BFA" stroke-width="2.66583" stroke-linecap="round" stroke-linejoin="round"/>
<path d="M21.3281 4.16992C22.4715 4.46633 23.484 5.13399 24.2069 6.06812C24.9297 7.00225 25.3219 8.14995 25.3219 9.33109C25.3219 10.5122 24.9297 11.6599 24.2069 12.5941C23.484 13.5282 22.4715 14.1958 21.3281 14.4923" stroke="#A78BFA" stroke-width="2.66583" stroke-linecap="round" stroke-linejoin="round"/>
<path d="M29.327 27.9924V25.3265C29.3261 24.1451 28.9329 22.9975 28.2091 22.0638C27.4853 21.1302 26.472 20.4633 25.3281 20.168" stroke="#A78BFA" stroke-width="2.66583" stroke-linecap="round" stroke-linejoin="round"/>
<path d="M11.9958 14.6616C14.9405 14.6616 17.3276 12.2745 17.3276 9.32983C17.3276 6.38517 14.9405 3.99805 11.9958 3.99805C9.05118 3.99805 6.66406 6.38517 6.66406 9.32983C6.66406 12.2745 9.05118 14.6616 11.9958 14.6616Z" stroke="#A78BFA" stroke-width="2.66583" stroke-linecap="round" stroke-linejoin="round"/>
</svg>
