<svg width="32" height="32" viewBox="0 0 32 32" fill="none" xmlns="http://www.w3.org/2000/svg">
<path d="M26.6553 17.329C26.6553 23.9937 21.9899 27.3261 16.4449 29.2589C16.1545 29.3573 15.8391 29.3526 15.5518 29.2456C9.99344 27.3261 5.32812 23.9937 5.32812 17.329V7.9984C5.32812 7.64488 5.46856 7.30584 5.71854 7.05586C5.96851 6.80589 6.30755 6.66545 6.66107 6.66545C9.32696 6.66545 12.6593 5.06592 14.9787 3.03984C15.261 2.79857 15.6203 2.66602 15.9917 2.66602C16.3631 2.66602 16.7223 2.79857 17.0047 3.03984C19.3374 5.07925 22.6564 6.66545 25.3223 6.66545C25.6758 6.66545 26.0149 6.80589 26.2648 7.05586C26.5148 7.30584 26.6553 7.64488 26.6553 7.9984V17.329Z" stroke="#A78BFA" stroke-width="2.66583" stroke-linecap="round" stroke-linejoin="round"/>
<path d="M12 15.996L14.6659 18.6619L19.9977 13.3301" stroke="#A78BFA" stroke-width="2.66583" stroke-linecap="round" stroke-linejoin="round"/>
</svg>
