<svg width="32" height="32" viewBox="0 0 32 32" fill="none" xmlns="http://www.w3.org/2000/svg">
<path d="M18.6554 5.33203C19.1363 5.33202 19.6083 5.46211 20.0213 5.7085C20.4343 5.9549 20.773 6.30842 21.0014 6.73162L21.6492 7.93128C21.8776 8.35448 22.2163 8.708 22.6293 8.9544C23.0423 9.20079 23.5143 9.33088 23.9952 9.33087H26.6571C27.3641 9.33087 28.0422 9.61174 28.5422 10.1117C29.0421 10.6116 29.323 11.2897 29.323 11.9968V23.9933C29.323 24.7003 29.0421 25.3784 28.5422 25.8783C28.0422 26.3783 27.3641 26.6592 26.6571 26.6592H5.32995C4.62292 26.6592 3.94484 26.3783 3.44488 25.8783C2.94493 25.3784 2.66406 24.7003 2.66406 23.9933V11.9968C2.66406 11.2897 2.94493 10.6116 3.44488 10.1117C3.94484 9.61174 4.62292 9.33087 5.32995 9.33087H7.99185C8.47227 9.3309 8.94377 9.2011 9.35649 8.9552C9.76921 8.7093 10.1078 8.35645 10.3365 7.93394L10.9883 6.72896C11.217 6.30645 11.5556 5.9536 11.9683 5.7077C12.381 5.4618 12.8525 5.332 13.333 5.33203H18.6554Z" stroke="#A78BFA" stroke-width="2.66583" stroke-linecap="round" stroke-linejoin="round"/>
<path d="M15.9988 21.3278C18.2073 21.3278 19.9977 19.5374 19.9977 17.3289C19.9977 15.1204 18.2073 13.3301 15.9988 13.3301C13.7903 13.3301 12 15.1204 12 17.3289C12 19.5374 13.7903 21.3278 15.9988 21.3278Z" stroke="#A78BFA" stroke-width="2.66583" stroke-linecap="round" stroke-linejoin="round"/>
</svg>
